<svg height="512" viewBox="0 0 512 512" width="512" xmlns="http://www.w3.org/2000/svg"><g id="Flat"><path d="m399.522 355.881-79.522-19.881-16-8v-72h-96v72l-16 8-79.522 19.881a64 64 0 0 0 -48.478 62.089v78.03h384v-78.03a64 64 0 0 0 -48.478-62.089z" fill="#fdc8a2"/><path d="m304 256v40a31.933 31.933 0 0 1 -8 9.27c-11.1 8.731-26.577 7.176-39.914 7.837-13.456.667-28.919.951-40.086-7.837a31.933 31.933 0 0 1 -8-9.27v-40z" fill="#fdbf92"/><path d="m399.522 355.881-79.522-19.881c-23.109 57.773-104.891 57.773-128 0l-79.522 19.881a64 64 0 0 0 -48.478 62.089v78.03h384v-78.03a64 64 0 0 0 -48.478-62.089z" fill="#348ed8"/><path d="m256 416a93.928 93.928 0 0 1 -26.235-3.575l4.47-15.363a77.943 77.943 0 0 0 21.765 2.938c34.825 0 48.8-19.654 49.38-20.491l13.276 8.929c-.75 1.125-18.878 27.562-62.656 27.562z" fill="#2d7dbe"/><path d="m172 184h12v-56h-12a28 28 0 0 0 -28 28 28 28 0 0 0 28 28z" fill="#fdb683"/><path d="m340 128h-12v56h12a28 28 0 0 0 28-28 28 28 0 0 0 -28-28z" fill="#fdb683"/><path d="m276.223 280h-40.446a32 32 0 0 1 -28.622-17.689l-13.266-26.534a169.443 169.443 0 0 1 -17.889-75.777v-40a80 80 0 0 1 80-80 80 80 0 0 1 80 80v40a169.443 169.443 0 0 1 -17.889 75.777l-13.266 26.534a32 32 0 0 1 -28.622 17.689z" fill="#fdc8a2"/><path d="m214 168a14 14 0 1 1 14-14 14.015 14.015 0 0 1 -14 14z" fill="#804c33"/><path d="m298 168a14 14 0 1 1 14-14 14.015 14.015 0 0 1 -14 14z" fill="#804c33"/><path d="m240 152h16v40h-16z" fill="#fcb079"/><path d="m240.764 224c-3.034 0-6.116-.075-9.207-.247l.886-15.975c22.645 1.254 45.755-3.292 45.987-3.339l3.143 15.689a230.825 230.825 0 0 1 -40.809 3.872z" fill="#fcb079"/><path d="m241.3 24h29.4a35.1 35.1 0 0 1 33.3 24v16h-96v-16a35.1 35.1 0 0 1 33.3-24z" fill="#f9a40f"/><path d="m304 72a64 64 0 0 0 25.6 51.2l6.4 4.8v-48a32 32 0 0 0 -32-32z" fill="#f9a40f"/><path d="m208 72a64 64 0 0 1 -25.6 51.2l-6.4 4.8v-48a32 32 0 0 1 32-32z" fill="#f9a40f"/><path d="m208 304v192h-144v-78.03a63.875 63.875 0 0 1 14.16-40.15 64.726 64.726 0 0 1 11.54-11.13 63.859 63.859 0 0 1 22.78-10.81l79.52-19.88z" fill="#2f486e"/><path d="m448 417.97v78.03h-144v-192l16 32 79.52 19.88a63.993 63.993 0 0 1 48.48 62.09z" fill="#2f486e"/><path d="m208 304-56 72 32 16-16 32 40 64z" fill="#415e89"/><path d="m304 304 56 72-32 16 16 32-40 64z" fill="#415e89"/><g fill="#26395a"><path d="m120 424h16v72h-16z"/><path d="m124.422 487.155c-18.049-9.024-33.164-52.085-36.012-60.625l15.179-5.061c6.219 18.632 19.015 46.888 27.989 51.376z"/><path d="m125.66 402.34-11.32 11.32-31.88-31.89-4.3-3.95a64.726 64.726 0 0 1 11.54-11.13l3.72 3.42c.08.08.16.15.24.23z"/><path d="m376 424h16v72h-16z"/><path d="m387.578 487.155-7.156-14.31c8.992-4.5 21.78-32.749 27.988-51.375l15.18 5.06c-2.848 8.54-17.963 51.601-36.012 60.625z"/><path d="m433.55 377.46-3.67 3.97c-.07.07-.15.15-.22.23l-32 32-11.32-11.32 31.89-31.88 3.72-4.03a64.186 64.186 0 0 1 11.6 11.03z"/></g><path d="m304 48v16s-95.858 0-96 0c-.417-.008-7.666-9.33-16.666-4.33-13.293 7.381-3.773 28.33 8.666 28.33a32 32 0 1 1 0-64h70.7a35.1 35.1 0 0 1 33.3 24z" fill="#ffb431"/><path d="m248 64h-16c0-39.54-30.69-40-32-40h26.7c11.04 3.82 21.3 14.27 21.3 40z" fill="#fbab1f"/><path d="m288 64h-16c0-39.54-30.69-40-32-40h26.7c11.04 3.82 21.3 14.27 21.3 40z" fill="#fbab1f"/></g></svg>