<svg height="512" viewBox="0 0 512 512" width="512" xmlns="http://www.w3.org/2000/svg"><g id="Flat"><path d="m352 144v45.755a24.733 24.733 0 0 0 7.244 17.489l9.588 9.588a24.733 24.733 0 0 1 2.3 32.328 24.732 24.732 0 0 0 0 29.68l3.7 4.932a24.733 24.733 0 0 1 2.335 25.9l-2.328 4.656a24.734 24.734 0 0 1 -22.125 13.672h-193.428a24.734 24.734 0 0 1 -22.122-13.672l-2.328-4.656a24.733 24.733 0 0 1 2.335-25.9l3.7-4.932a24.732 24.732 0 0 0 0-29.68 24.733 24.733 0 0 1 2.3-32.328l9.588-9.588a24.733 24.733 0 0 0 7.241-17.489v-45.755z" fill="#f88400"/><path d="m185.187 337.192-8-13q-.186-.3-.342-.614l-9.112-18.222a29.339 29.339 0 0 1 5.5-33.906 13.389 13.389 0 0 0 3.859-8.2l15.929 1.5a29.439 29.439 0 0 1 -8.473 18.014 13.358 13.358 0 0 0 -2.506 15.436l8.958 17.907 7.815 12.7z" fill="#ef7800"/><path d="m325.637 336.549-13.2-9.045a241.367 241.367 0 0 0 17.516-29.3 13.356 13.356 0 0 0 -2.5-15.436 29.121 29.121 0 0 1 -7.019-11.251l15.138-5.178a13.225 13.225 0 0 0 3.2 5.114 29.337 29.337 0 0 1 5.5 33.906 256.564 256.564 0 0 1 -18.635 31.19z" fill="#ef7800"/><path d="m128 496v-128a48 48 0 0 1 48-48h36a12 12 0 0 0 12-12v-68h64v68a12 12 0 0 0 12 12h36a48 48 0 0 1 48 48v128" fill="#fdc8a2"/><path d="m288 248v49.33a80.1 80.1 0 0 1 -64 0v-49.33z" fill="#fdbf92"/><path d="m128 496v-128a48 48 0 0 1 48-48h16l64 112 64-112h16a48 48 0 0 1 48 48v128" fill="#dfdfdd"/><path d="m384 496v-128a48 48 0 0 0 -48-48h-32l-24 160v16" fill="#34507b"/><path d="m128 496v-128a48 48 0 0 1 48-48h32l24 160v16" fill="#34507b"/><path d="m208 320h-16l-24 32 24 24-24 8 64 96z" fill="#415e89"/><path d="m304 320h16l24 32-24 24 24 8-64 96z" fill="#415e89"/><path d="m184 496h-16v-4.814a62.169 62.169 0 0 1 -16-41.813v-.833a62.421 62.421 0 0 1 10.519-34.74l13.312 8.875a46.481 46.481 0 0 0 -7.831 25.865v.833a46.322 46.322 0 0 0 13.657 32.97 8 8 0 0 1 2.343 5.657z" fill="#26395a"/><path d="m344 496h-16v-8a8 8 0 0 1 2.343-5.657 46.322 46.322 0 0 0 13.657-32.97v-.833a46.481 46.481 0 0 0 -7.831-25.864l13.312-8.875a62.421 62.421 0 0 1 10.519 34.739v.833a62.169 62.169 0 0 1 -16 41.813z" fill="#26395a"/><path d="m286.311 272.845a67.785 67.785 0 0 1 -30.311 7.155 67.785 67.785 0 0 1 -30.311-7.155 89.889 89.889 0 0 1 -49.689-80.399v-64.446a80 80 0 0 1 80-80 80 80 0 0 1 80 80v64.446a89.889 89.889 0 0 1 -49.689 80.399z" fill="#fdc8a2"/><path d="m360 144h8a0 0 0 0 1 0 0v48a0 0 0 0 1 0 0h-8a24 24 0 0 1 -24-24 24 24 0 0 1 24-24z" fill="#fdbf92" transform="matrix(-1 0 0 -1 704 336)"/><path d="m168 144h8a0 0 0 0 1 0 0v48a0 0 0 0 1 0 0h-8a24 24 0 0 1 -24-24 24 24 0 0 1 24-24z" fill="#fdbf92"/><path d="m352 88v56h-16l-32-57.6-8-14.4-8 4.8-112 67.2h-16v-26.08a103.3 103.3 0 0 1 8.9-41.95 87.559 87.559 0 0 1 79.98-51.97 76.409 76.409 0 0 1 39.12 10.79q1.65.975 3.24 2.04l4.76 3.17h8a47.987 47.987 0 0 1 48 48z" fill="#f88400"/><path d="m304 40v46.4l-8-14.4-8 4.8v-42.01q1.65.975 3.24 2.04l4.76 3.17z" fill="#ef7800"/><path d="m198.51 100.649-13.02-9.3a124.647 124.647 0 0 1 30.072-28.007c25.479-16.986 53.964-22.211 82.378-15.105l-3.88 15.522c-58.033-14.501-95.182 36.376-95.55 36.89z" fill="#ef7800"/><path d="m214 180a14 14 0 1 1 14-14 14.015 14.015 0 0 1 -14 14z" fill="#91563a"/><path d="m298 180a14 14 0 1 1 14-14 14.015 14.015 0 0 1 -14 14z" fill="#91563a"/><g fill="#fcb079"><path d="m246.111 228h-6.111v-16h6.111a68.131 68.131 0 0 0 30.311-7.155l7.156 14.31a84.2 84.2 0 0 1 -37.467 8.845z"/><path d="m234.713 173.834h35.9v16h-35.9z" transform="matrix(.223 -.975 .975 .223 19.085 387.611)"/></g></g></svg>